<?xml version="1.0" standalone="no"?>
<!DOCTYPE svg PUBLIC "-//W3C//DTD SVG 20010904//EN"
 "http://www.w3.org/TR/2001/REC-SVG-20010904/DTD/svg10.dtd">
<svg version="1.0" xmlns="http://www.w3.org/2000/svg"
 width="3548.000000pt" height="3548.000000pt" viewBox="0 0 3548.000000 3548.000000"
 preserveAspectRatio="xMidYMid meet">
<metadata>
Created by potrace 1.11, written by Peter Selinger 2001-2013
</metadata>
<g transform="translate(0.000000,3548.000000) scale(0.100000,-0.100000)"
fill="#000000" stroke="none">
<path d="M17580 31737 c-3 -2 -111 -8 -240 -11 -129 -4 -257 -9 -285 -11 -27
-2 -102 -6 -165 -10 -63 -4 -140 -8 -170 -10 -168 -13 -209 -16 -245 -20 -22
-3 -71 -7 -110 -10 -38 -3 -81 -8 -95 -10 -14 -2 -59 -6 -100 -9 -41 -4 -86
-8 -100 -11 -14 -2 -52 -6 -85 -10 -33 -3 -89 -10 -125 -15 -36 -5 -92 -12
-125 -16 -33 -3 -68 -8 -79 -10 -10 -2 -44 -6 -75 -10 -31 -3 -59 -8 -62 -10
-3 -2 -30 -6 -60 -9 -71 -8 -405 -62 -496 -80 -39 -8 -89 -17 -110 -20 -21 -3
-61 -10 -89 -16 -28 -5 -64 -12 -80 -15 -16 -3 -36 -7 -44 -9 -8 -2 -30 -7
-47 -10 -18 -3 -63 -12 -100 -21 -38 -9 -77 -18 -88 -20 -34 -7 -59 -12 -85
-18 -14 -3 -65 -15 -115 -26 -49 -11 -108 -25 -130 -30 -22 -6 -49 -13 -60
-15 -47 -10 -235 -58 -299 -76 -38 -12 -76 -22 -85 -24 -214 -47 -955 -286
-1361 -438 -36 -14 -99 -37 -140 -52 -41 -16 -79 -32 -85 -37 -5 -4 -15 -8
-23 -8 -7 0 -32 -9 -56 -19 -23 -11 -67 -30 -97 -41 -30 -12 -67 -28 -84 -35
-16 -7 -109 -47 -205 -88 -96 -41 -211 -92 -255 -112 -44 -20 -111 -51 -150
-68 -139 -64 -786 -393 -820 -417 -5 -4 -48 -28 -95 -53 -140 -74 -184 -99
-201 -113 -8 -8 -19 -14 -24 -14 -7 0 -283 -164 -432 -256 -34 -22 -90 -57
-125 -78 -103 -65 -456 -299 -560 -373 -53 -37 -138 -97 -189 -133 -233 -165
-576 -427 -700 -535 -51 -45 -110 -95 -219 -185 -41 -34 -84 -69 -95 -78 -11
-10 -78 -64 -149 -121 -123 -99 -150 -122 -296 -251 -93 -82 -249 -227 -401
-371 -168 -159 -262 -239 -283 -239 -7 0 -29 -26 -49 -57 -20 -32 -59 -83 -88
-113 -67 -72 -289 -307 -359 -380 -30 -32 -74 -80 -97 -107 -23 -26 -54 -61
-68 -78 -14 -16 -36 -41 -48 -55 -31 -36 -152 -176 -203 -235 -44 -52 -272
-332 -311 -382 -48 -62 -59 -76 -91 -116 -52 -63 -247 -326 -367 -492 -132
-183 -184 -250 -253 -324 -91 -96 -88 -91 -73 -100 11 -7 10 -14 -3 -37 -8
-16 -18 -37 -22 -46 -3 -10 -10 -18 -13 -18 -10 0 -7 -32 3 -49 5 -8 3 -17 -5
-22 -8 -5 -9 -9 -4 -9 6 0 10 -31 10 -74 0 -41 -2 -73 -6 -70 -3 2 -5 -8 -3
-21 1 -16 -3 -25 -12 -25 -8 0 -11 -6 -7 -17 5 -12 3 -14 -8 -8 -12 7 -12 6 1
-11 8 -10 11 -16 7 -13 -5 4 -20 -4 -34 -17 -20 -19 -28 -21 -35 -12 -6 10 -8
10 -8 1 0 -7 -7 -10 -15 -7 -8 4 -22 1 -29 -5 -9 -8 -16 -8 -20 -2 -4 5 -15 9
-26 8 -10 -1 -16 -5 -13 -11 4 -5 -1 -7 -12 -2 -16 6 -16 4 -4 -11 12 -15 12
-16 -5 -10 -16 6 -17 5 -6 -8 12 -15 5 -20 -25 -16 -5 1 -1 -6 9 -14 11 -8 14
-15 7 -15 -7 0 -9 -4 -6 -10 3 -6 -1 -7 -9 -4 -9 3 -13 11 -9 17 3 5 1 7 -5 4
-5 -4 -8 -17 -4 -29 4 -17 2 -20 -13 -14 -14 5 -15 4 -7 -7 14 -16 -1 -42 -19
-33 -8 4 -6 1 4 -7 12 -10 14 -17 8 -22 -6 -3 -11 -3 -11 2 0 10 -20 -19 -20
-30 0 -5 6 -5 13 -1 6 4 2 -4 -11 -17 -18 -19 -24 -21 -31 -11 -6 10 -10 7
-15 -13 -6 -25 -34 -57 -76 -87 -30 -21 -92 -126 -79 -134 6 -4 21 6 34 22 12
16 32 40 44 54 l22 25 -12 -25 c-6 -14 -20 -36 -29 -50 -19 -27 -142 -262
-226 -430 -48 -96 -72 -147 -199 -415 -23 -49 -73 -162 -110 -250 -37 -88 -71
-169 -76 -180 -188 -428 -489 -1339 -593 -1800 -9 -38 -21 -81 -26 -95 -5 -14
-11 -38 -14 -55 -2 -16 -11 -60 -20 -96 -8 -37 -17 -78 -20 -90 -2 -13 -9 -44
-15 -69 -5 -25 -12 -56 -15 -70 -2 -14 -9 -45 -15 -70 -10 -47 -13 -60 -30
-150 -6 -30 -13 -66 -16 -80 -7 -35 -53 -307 -59 -350 -3 -19 -7 -44 -10 -55
-2 -11 -7 -45 -11 -75 -4 -30 -9 -64 -11 -75 -2 -11 -9 -58 -14 -105 -6 -47
-13 -92 -15 -100 -2 -8 -7 -44 -10 -80 -4 -36 -8 -76 -10 -90 -2 -14 -7 -54
-10 -90 -4 -36 -9 -72 -10 -80 -1 -8 -6 -53 -10 -100 -5 -47 -9 -92 -10 -100
-1 -8 -5 -55 -9 -105 -4 -49 -9 -108 -11 -130 -2 -22 -6 -98 -10 -170 -4 -71
-9 -141 -11 -155 -5 -37 -19 -606 -19 -755 1 -173 15 -771 19 -815 2 -19 7
-91 10 -160 4 -69 9 -132 11 -140 2 -8 7 -64 10 -125 4 -60 8 -112 10 -116 2
-3 7 -43 10 -90 3 -46 7 -95 10 -109 2 -14 7 -50 10 -80 13 -112 21 -179 41
-310 8 -52 16 -115 19 -140 2 -25 8 -65 13 -90 5 -25 8 -71 7 -103 -1 -37 2
-57 9 -57 7 0 13 -12 14 -27 1 -16 11 -71 22 -123 11 -52 36 -174 56 -270 49
-238 62 -302 68 -325 3 -11 14 -58 25 -105 11 -47 34 -137 51 -200 44 -163 98
-360 109 -395 121 -390 159 -505 189 -573 8 -21 17 -46 19 -57 2 -10 7 -22 11
-25 4 -3 9 -16 11 -30 1 -13 11 -43 21 -65 27 -60 33 -79 31 -89 -1 -4 4 -18
12 -30 7 -11 19 -40 25 -63 7 -24 17 -43 21 -43 5 0 9 -12 9 -26 0 -15 6 -30
13 -35 8 -5 10 -9 6 -9 -4 0 -2 -10 5 -23 6 -12 13 -31 15 -42 2 -10 8 -22 14
-26 6 -3 10 -9 10 -13 -3 -18 0 -27 6 -23 5 3 9 -5 9 -16 1 -12 13 -47 27 -77
14 -30 29 -68 32 -83 4 -15 11 -27 17 -27 5 0 7 -4 3 -9 -3 -5 0 -15 7 -23 7
-7 15 -22 16 -33 2 -11 8 -23 14 -26 5 -3 9 -9 8 -13 -4 -13 42 -116 51 -116
5 0 8 -3 8 -7 -3 -20 2 -34 10 -29 5 3 9 0 8 -7 -1 -34 4 -48 15 -41 6 4 8 3
5 -2 -3 -6 2 -28 12 -49 10 -22 19 -44 20 -50 1 -5 8 -17 15 -25 7 -8 19 -31
26 -50 23 -57 37 -80 44 -73 4 4 4 0 1 -9 -3 -8 1 -23 10 -32 9 -9 14 -16 10
-16 -7 0 26 -62 38 -71 5 -3 8 -8 8 -10 -4 -11 22 -69 30 -69 5 0 8 -3 7 -7
-2 -9 23 -65 32 -73 4 -3 12 -20 19 -37 8 -18 17 -33 22 -33 5 0 8 -3 7 -7 -3
-14 25 -63 35 -63 6 0 8 -3 4 -6 -3 -3 9 -34 27 -68 19 -33 44 -81 57 -106 13
-25 27 -47 32 -48 4 -2 5 -8 1 -13 -3 -5 2 -12 10 -15 9 -3 16 -14 16 -24 0
-10 3 -20 8 -22 10 -4 39 -55 58 -101 9 -20 20 -37 24 -37 4 0 13 -13 20 -30
7 -16 17 -30 22 -30 5 0 7 -3 5 -7 -2 -5 3 -20 12 -35 9 -14 29 -48 45 -75
126 -207 543 -832 576 -863 3 -3 39 -52 79 -110 41 -58 100 -141 131 -185 91
-130 114 -166 150 -242 26 -57 36 -70 47 -62 10 9 21 4 46 -17 39 -34 116
-124 182 -211 25 -35 77 -93 114 -130 36 -38 89 -93 116 -124 28 -31 78 -87
112 -125 34 -38 70 -79 81 -92 83 -96 352 -377 362 -377 23 -3 50 -19 50 -31
0 -8 7 -14 16 -14 11 0 14 -6 9 -22 -7 -23 -7 -23 9 -3 15 19 16 19 9 1 -3
-11 -2 -17 3 -14 5 3 24 -10 43 -29 19 -18 28 -31 19 -28 -9 4 -18 2 -22 -3
-6 -11 24 -9 44 3 8 4 12 5 8 0 -4 -4 -3 -14 3 -21 8 -10 5 -11 -13 -7 -13 3
-20 3 -17 -1 4 -4 18 -8 32 -10 28 -3 77 -38 77 -56 0 -6 4 -8 10 -5 5 3 10 1
10 -5 0 -6 4 -8 10 -5 5 3 7 0 4 -8 -3 -8 1 -21 8 -28 7 -8 14 -20 15 -27 4
-19 45 -62 55 -56 5 3 7 0 6 -8 -2 -7 3 -12 9 -11 7 2 13 -3 13 -11 0 -8 9
-18 21 -21 11 -4 18 -9 15 -12 -6 -6 59 -70 202 -200 53 -48 145 -136 204
-195 106 -104 108 -107 108 -152 0 -42 3 -47 45 -76 24 -17 95 -54 157 -84
159 -75 315 -198 306 -242 -3 -15 33 -47 152 -135 143 -108 230 -183 230 -199
0 -4 19 -12 42 -19 50 -15 104 -49 138 -86 46 -50 335 -237 456 -296 79 -38
352 -194 434 -249 30 -20 87 -55 125 -78 239 -146 273 -170 277 -194 2 -18 11
-24 45 -30 43 -7 111 -38 134 -60 87 -83 341 -219 549 -293 134 -48 198 -75
340 -142 103 -49 262 -123 375 -173 118 -52 275 -111 284 -106 5 3 15 0 23 -7
7 -8 19 -12 27 -9 8 3 11 1 8 -4 -5 -9 27 -15 90 -17 17 -1 30 -4 27 -8 -2 -4
20 -11 51 -14 30 -4 53 -10 51 -14 -3 -4 4 -12 14 -19 16 -10 18 -9 14 6 -4
12 -2 12 7 -3 7 -11 21 -26 31 -33 10 -7 18 -19 18 -26 0 -8 14 -16 31 -20 17
-3 45 -12 62 -20 18 -7 59 -23 92 -34 33 -11 132 -46 220 -77 160 -57 198 -69
501 -163 147 -46 536 -157 581 -167 10 -2 74 -18 143 -35 349 -88 629 -149
874 -190 61 -10 183 -32 271 -48 88 -17 174 -32 190 -35 17 -3 61 -10 99 -17
38 -6 73 -13 76 -15 4 -3 38 -7 75 -11 37 -3 76 -7 88 -10 32 -6 136 -22 182
-28 36 -4 113 -14 170 -22 11 -1 45 -5 75 -8 30 -3 71 -8 90 -11 38 -5 103
-12 195 -20 33 -4 76 -8 95 -10 126 -13 202 -19 405 -30 72 -4 155 -9 185 -11
107 -8 958 -11 1160 -4 297 11 541 22 570 26 14 2 210 6 435 9 432 6 673 12
715 18 14 3 50 7 80 11 30 3 78 9 105 12 28 4 95 20 149 36 97 28 166 44 236
53 138 18 185 25 283 43 28 6 47 6 47 0 0 -5 7 -5 18 0 22 12 95 22 202 28 47
3 103 12 125 21 23 9 72 15 115 15 61 0 79 4 97 20 17 16 39 21 105 25 45 2
106 11 136 19 29 9 61 13 70 9 9 -4 54 -10 99 -14 l82 -6 6 30 c12 58 16 63
51 70 20 3 72 6 117 5 158 -3 185 0 284 36 103 37 119 49 100 73 -10 11 -6 13
25 10 26 -4 34 -1 31 8 -3 8 2 11 16 8 12 -2 21 0 21 5 0 4 9 6 20 3 13 -3 20
0 20 8 0 11 2 11 10 -1 6 -10 10 -11 10 -2 0 6 10 12 23 12 13 0 29 6 35 12
10 10 15 10 21 -1 7 -11 11 -10 19 6 7 12 20 19 39 18 15 -1 37 6 47 14 18 15
19 15 12 -3 -7 -19 -6 -19 13 -2 11 10 25 15 30 11 6 -3 11 2 11 12 0 14 2 15
9 4 6 -9 11 -10 15 -2 4 6 18 11 31 11 13 0 26 6 28 13 4 9 6 9 6 0 1 -7 6
-13 12 -13 5 0 7 4 4 10 -3 6 1 7 9 4 9 -3 16 -1 16 6 0 6 5 8 10 5 6 -3 10
-1 10 6 0 8 5 7 17 -2 15 -12 16 -12 11 3 -4 10 -1 19 8 22 10 4 13 2 8 -7 -6
-8 -3 -8 9 1 9 8 21 11 27 7 5 -3 10 0 10 7 0 9 3 9 10 -2 9 -13 10 -13 10 0
0 12 2 12 9 2 6 -11 10 -10 15 3 5 15 9 15 23 4 12 -10 14 -10 9 -1 -4 7 -1
12 8 12 9 0 16 6 16 13 0 9 3 8 9 -2 6 -9 10 -10 16 -2 3 7 15 9 26 6 11 -4
19 -3 18 2 -4 20 2 24 19 12 9 -7 14 -9 10 -5 -8 10 41 40 50 31 3 -3 -1 -5
-8 -5 -7 0 -11 -3 -7 -6 3 -3 20 4 38 17 22 15 34 19 37 11 2 -7 11 -5 25 8
11 11 26 20 31 20 6 0 4 -5 -4 -11 -13 -9 -13 -10 0 -5 8 3 23 9 33 12 9 4 17
11 17 18 0 6 5 4 10 -4 6 -10 10 -11 10 -2 0 6 7 12 15 12 8 0 15 6 15 13 0 8
4 7 10 -3 9 -13 11 -13 20 0 5 8 10 11 10 5 0 -5 5 -2 11 8 8 13 14 15 30 7
15 -8 21 -7 25 4 3 8 12 17 20 20 8 3 12 1 9 -4 -3 -6 1 -7 9 -4 9 3 16 10 16
15 0 4 7 6 15 3 8 -4 17 1 21 10 5 13 9 14 20 5 9 -7 14 -8 14 -1 0 5 7 13 16
16 8 3 13 2 10 -2 -3 -5 1 -9 9 -9 8 0 13 3 10 5 -3 3 3 11 13 18 13 9 19 9
24 1 5 -8 8 -6 8 5 0 11 5 15 14 12 8 -3 17 0 21 6 6 9 10 9 16 -1 7 -11 9
-11 9 2 0 11 8 15 25 14 17 -2 31 5 45 22 17 22 20 23 20 7 1 -18 1 -18 15 0
8 11 15 16 15 12 0 -5 6 -4 13 1 6 6 19 10 27 11 8 0 45 6 81 14 37 8 102 16
145 17 43 1 81 4 85 7 4 2 3 20 -1 39 -9 41 -27 30 210 130 74 31 163 70 198
86 34 16 64 29 67 29 3 0 48 20 101 45 52 25 97 45 99 45 18 0 625 302 811
402 65 36 160 87 209 113 279 148 672 386 1050 634 145 95 533 366 585 408 8
7 62 47 120 90 124 91 116 85 160 121 19 15 84 66 144 112 60 46 130 101 155
122 49 41 72 60 166 135 33 26 65 53 70 59 6 6 73 64 150 130 149 127 204 177
324 292 l75 72 -32 30 c-18 16 -32 34 -32 39 0 6 -4 11 -8 11 -6 0 -90 65
-177 138 -11 9 -45 37 -75 62 -30 25 -89 74 -130 110 -73 63 -87 75 -140 120
-178 153 -353 331 -420 430 -13 19 -29 40 -36 45 -22 19 -36 81 -40 184 -4 98
-5 105 -36 145 -18 22 -38 47 -45 53 -6 7 -20 23 -30 36 -43 54 -209 181 -343
262 -250 151 -343 220 -459 340 -244 255 -349 485 -422 927 -10 64 -28 141
-40 170 -11 29 -80 154 -154 278 -73 124 -142 241 -153 260 -11 19 -52 91 -92
160 -82 143 -133 247 -128 262 2 6 40 22 84 35 132 41 346 103 404 119 98 27
375 116 383 123 9 9 -30 166 -74 301 -9 30 -41 134 -69 230 -127 433 -125 428
-329 636 -93 95 -130 142 -152 188 -16 33 -29 69 -29 78 0 9 -4 20 -10 23 -5
3 -10 13 -10 22 0 35 -64 146 -110 192 -28 26 -50 55 -50 64 0 28 -12 47 -30
47 -38 0 -164 84 -296 197 -27 23 -69 58 -94 78 -25 20 -66 57 -92 81 -26 24
-49 44 -53 44 -3 0 -24 15 -47 33 -147 117 -324 360 -453 622 -110 224 -188
433 -260 700 -20 72 -41 148 -47 170 -6 22 -26 87 -45 145 -40 125 -43 153
-46 420 l-2 206 -49 44 c-148 135 -155 145 -265 365 -106 213 -144 303 -204
485 -60 184 -77 222 -93 216 -11 -4 -28 -8 -99 -21 -11 -2 -37 -4 -57 -4 -27
-1 -38 -6 -43 -21 -9 -29 -21 -25 -35 13 -99 259 -233 463 -421 642 -146 139
-165 153 -618 475 -505 359 -722 606 -915 1043 -14 31 -25 58 -25 60 0 3 -5
20 -25 77 -44 129 -81 277 -91 365 -3 28 -8 59 -10 70 -3 11 -7 38 -10 60 -13
97 -17 107 -64 148 -107 95 -229 226 -258 277 -38 69 -107 246 -99 258 10 16
-46 58 -219 168 -93 59 -172 110 -175 114 -3 4 -12 11 -21 16 -64 36 -239 204
-287 278 -77 115 -126 233 -178 433 -19 74 -44 155 -56 180 -12 26 -71 97
-142 169 -180 187 -269 323 -427 651 -137 283 -177 356 -238 433 -20 24 -35
50 -33 57 4 17 2 17 -97 -7 -85 -21 -210 -62 -292 -98 -44 -19 -198 -109 -209
-121 -3 -3 -32 -26 -65 -50 -33 -25 -62 -47 -65 -51 -3 -3 -25 -21 -50 -40
-25 -19 -54 -43 -65 -53 -21 -20 -214 -170 -350 -272 -200 -151 -297 -275
-483 -615 -85 -156 -94 -302 -36 -580 13 -63 27 -126 29 -140 3 -14 8 -32 11
-40 3 -8 8 -26 10 -40 3 -14 9 -36 14 -50 5 -14 12 -36 14 -50 3 -14 17 -81
31 -150 19 -87 25 -143 22 -183 -3 -32 -7 -60 -9 -62 -7 -8 -172 81 -363 196
-328 197 -467 231 -622 151 -93 -48 -209 -200 -249 -327 -53 -169 -59 -208
-59 -435 0 -298 24 -478 140 -1040 2 -8 20 -96 40 -195 20 -99 39 -183 41
-186 2 -4 6 -24 10 -45 3 -22 12 -66 21 -99 8 -33 16 -64 18 -70 1 -5 4 -17 7
-25 21 -57 111 -347 124 -400 34 -133 19 -241 -82 -590 -29 -97 -46 -180 -48
-222 -3 -72 7 -161 23 -193 19 -37 99 -320 106 -370 4 -27 8 -61 10 -75 5 -31
13 -127 20 -245 3 -49 8 -110 10 -135 2 -25 7 -88 10 -140 3 -52 8 -113 10
-135 2 -22 7 -85 10 -140 4 -55 8 -120 10 -145 2 -25 6 -88 10 -140 4 -52 8
-111 10 -130 2 -19 6 -84 10 -145 3 -60 8 -121 10 -135 2 -14 7 -77 10 -140 4
-63 9 -133 10 -155 2 -22 7 -80 10 -130 3 -49 8 -101 10 -115 20 -141 30
-1552 12 -1775 -10 -125 -15 -187 -22 -295 -3 -47 -7 -101 -10 -120 -3 -19 -7
-57 -10 -85 -15 -143 -40 -269 -71 -357 -14 -40 -28 -82 -31 -93 -18 -64 -171
-230 -279 -304 -87 -60 -248 -145 -359 -191 -44 -17 -95 -45 -113 -61 l-33
-29 30 -83 c53 -147 67 -179 164 -377 52 -107 102 -212 110 -232 l15 -37 -37
-6 c-41 -7 -275 5 -408 21 -24 2 -43 2 -43 -1 0 -14 53 -85 102 -136 29 -31
76 -83 103 -114 28 -32 55 -63 61 -69 31 -32 174 -208 203 -249 l32 -48 -44
-77 c-25 -42 -54 -93 -64 -112 -11 -19 -34 -57 -51 -85 -17 -27 -42 -71 -56
-96 l-25 -46 101 -154 c56 -85 143 -217 194 -295 96 -145 142 -225 162 -282 6
-17 16 -32 22 -32 6 0 -56 -64 -136 -142 -276 -269 -509 -503 -592 -596 l-83
-93 33 -37 c18 -21 64 -60 102 -87 75 -54 166 -139 208 -195 23 -30 68 -132
74 -167 1 -6 7 -27 13 -45 27 -86 29 -81 -95 -225 -148 -172 -179 -203 -250
-251 -58 -39 -261 -132 -289 -132 -22 0 -31 -19 -109 -220 l-71 -184 -78 -13
c-43 -7 -91 -20 -108 -28 l-29 -16 39 -57 c21 -31 58 -79 83 -107 24 -27 47
-57 50 -66 4 -9 20 -26 36 -38 l30 -21 39 46 38 45 56 -5 c106 -9 250 -56 347
-112 l42 -25 -47 -87 c-48 -90 -84 -141 -213 -302 -143 -178 -201 -291 -206
-398 -2 -48 -7 -68 -21 -78 -16 -13 -15 -14 12 -8 17 4 109 29 205 56 370 104
419 116 460 120 32 2 43 -1 45 -12 2 -8 30 -98 63 -200 33 -102 58 -188 55
-193 -10 -17 -88 -49 -134 -54 l-49 -6 -31 -101 c-16 -56 -37 -126 -46 -156
-10 -30 -18 -59 -20 -65 -1 -5 -16 -50 -33 -100 -34 -96 -39 -126 -44 -247 -2
-69 0 -83 29 -145 18 -37 35 -82 38 -100 l6 -32 -72 30 c-40 17 -81 34 -92 39
-11 5 -74 32 -140 61 -171 74 -196 85 -334 150 -68 33 -126 59 -128 59 -8 0
-355 174 -428 215 -71 39 -181 110 -201 129 -6 6 -34 33 -63 59 l-52 49 24 53
c14 29 70 124 125 212 55 88 108 183 118 211 12 33 25 52 36 54 17 3 16 7 -8
42 -52 76 -135 246 -127 260 4 8 24 32 43 53 60 64 280 323 280 328 0 3 -64 4
-142 2 -79 -2 -150 -2 -160 1 -18 4 -15 17 44 142 70 149 92 199 119 275 15
44 25 83 21 87 -4 4 -50 28 -102 54 -203 99 -307 178 -382 290 -54 80 -96 230
-113 399 -3 33 -7 80 -10 105 -16 166 -20 319 -20 730 0 459 3 552 29 850 3
36 8 103 11 150 3 47 8 110 10 140 2 30 7 93 10 140 3 47 8 112 10 145 5 69
12 170 20 300 3 50 8 106 10 125 2 19 7 67 10 105 10 124 13 138 66 335 29
104 31 240 7 315 -38 115 -62 242 -62 330 0 77 6 108 38 210 50 157 61 198 91
341 37 170 93 444 100 485 13 86 26 169 34 224 5 33 8 132 6 220 -4 238 -45
365 -159 489 -43 48 -46 50 -105 52 -119 5 -210 -30 -450 -170 -62 -37 -127
-74 -143 -82 l-30 -16 6 69 c4 37 11 84 16 103 5 19 11 46 13 60 3 14 16 70
30 125 67 260 63 416 -15 568 -81 158 -163 273 -213 299 -18 10 -19 10 -5 -7
14 -17 14 -18 -7 -6 -19 10 -23 9 -23 -4 0 -9 -4 -14 -9 -11 -5 4 -12 0 -14
-6 -4 -10 -6 -10 -6 0 -1 7 -6 10 -12 7 -6 -4 -30 -8 -53 -9 -34 -1 -42 2 -38
13 3 9 1 12 -6 7 -7 -4 -12 -2 -12 4 0 6 -4 8 -10 5 -5 -3 -10 -1 -10 4 0 6
-9 11 -20 11 -13 0 -18 5 -13 15 3 9 -3 23 -13 31 -11 9 -13 12 -6 9 11 -6 11
-3 1 13 -7 12 -16 19 -19 17 -3 -2 -6 5 -6 16 0 10 4 19 9 19 4 0 5 6 0 13 -4
6 -8 21 -10 32 -4 38 -9 52 -26 76 -10 13 -15 18 -12 12 3 -7 2 -13 -4 -13 -5
0 -12 8 -16 18 -10 28 -170 148 -273 203 -56 30 -192 82 -192 74 0 -2 -10 -1
-22 4 -69 25 -76 24 -104 -21 -15 -23 -82 -150 -149 -283 -136 -269 -160 -308
-255 -415 -120 -135 -136 -161 -179 -294 -22 -69 -50 -146 -62 -173 -59 -127
-172 -247 -342 -360 -129 -87 -166 -126 -218 -230 -25 -49 -80 -132 -126 -189
-45 -56 -90 -119 -101 -141 -18 -35 -54 -160 -67 -233 -5 -27 -58 -188 -94
-285 -13 -33 -57 -112 -99 -175 -102 -153 -260 -311 -451 -450 -79 -58 -198
-145 -265 -194 -142 -103 -334 -294 -387 -385 -20 -34 -50 -95 -65 -136 -18
-44 -36 -76 -46 -78 -17 -5 -63 -2 -121 8 -26 4 -30 0 -61 -68 -18 -39 -41
-94 -51 -122 -33 -91 -98 -230 -120 -257 l-23 -27 -26 39 c-46 69 -202 405
-302 647 -20 48 -43 104 -51 123 -28 65 -32 75 -83 210 -29 74 -55 144 -60
155 -23 60 -63 138 -79 154 -12 12 -18 34 -18 67 -1 27 -12 83 -26 124 -60
184 -89 274 -127 400 -23 74 -43 142 -45 150 -2 8 -24 89 -49 180 -53 191 -66
239 -70 260 -2 8 -5 22 -8 30 -10 28 -89 375 -123 540 -33 159 -55 275 -61
315 -3 28 -8 53 -10 56 -2 4 -6 24 -9 45 -4 22 -8 46 -10 54 -2 8 -7 38 -11
65 -6 51 -9 70 -19 115 -3 14 -7 41 -9 60 -3 19 -10 69 -16 110 -6 41 -13 86
-15 100 -10 70 -35 262 -40 315 -3 33 -10 101 -16 150 -6 50 -12 115 -15 145
-2 30 -6 71 -9 90 -2 19 -7 73 -10 120 -4 47 -8 105 -10 130 -2 25 -7 97 -11
160 -3 63 -8 133 -10 155 -1 22 -5 148 -8 280 -7 326 -13 435 -31 520 -2 9
-35 91 -71 181 -3 6 16 38 41 72 52 69 46 33 60 382 3 85 8 178 10 205 4 46 7
86 20 285 7 87 23 160 37 160 6 0 7 13 2 32 -16 70 -4 177 32 273 10 27 16 93
19 205 2 91 6 176 8 190 3 14 8 45 11 70 4 25 9 52 11 60 2 8 7 31 10 50 3 19
10 58 15 85 10 52 13 71 24 145 4 25 16 88 27 140 10 52 21 106 23 120 2 14
21 99 41 190 40 180 38 173 55 245 6 28 13 57 15 65 20 89 29 125 46 185 12
38 23 78 25 90 18 97 206 705 304 984 32 91 68 198 80 236 12 39 35 102 52
140 17 39 72 167 123 285 168 390 215 491 390 840 173 346 408 768 565 1015 8
13 28 45 44 72 61 101 337 512 395 587 59 76 75 105 49 90 -9 -5 -9 -2 1 9 15
19 36 23 25 5 -4 -6 -3 -8 4 -5 5 4 8 16 5 26 -3 10 1 22 8 26 8 6 10 4 4 -5
-5 -9 -4 -11 3 -6 9 5 9 13 2 27 -6 10 -7 18 -3 17 4 -1 20 9 36 23 28 27 37
46 15 33 -9 -5 -9 -2 1 9 15 18 26 23 16 7 -3 -5 -1 -10 4 -10 11 0 15 13 12
37 -1 6 4 15 10 19 8 4 9 3 5 -4 -4 -7 -2 -12 5 -12 6 0 9 8 6 19 -3 15 0 18
17 14 17 -4 18 -3 6 6 -13 9 -13 12 -1 23 11 11 13 11 6 -1 -6 -10 -4 -12 4
-7 7 5 10 15 6 23 -4 13 -3 14 10 3 13 -11 14 -10 10 3 -4 8 -2 18 4 22 6 3
11 1 11 -4 0 -6 8 -3 18 7 22 20 19 31 -3 12 -18 -15 -19 -1 -1 23 15 19 31
24 20 5 -4 -7 -3 -8 4 -4 6 4 8 14 5 23 -5 13 -2 15 11 10 9 -4 15 -3 11 2 -3
5 -1 12 5 16 5 3 10 12 10 18 0 7 -7 4 -14 -5 -18 -24 -29 -23 -14 2 13 21 55
21 50 0 -1 -6 2 -9 8 -5 6 4 3 16 -8 33 -9 14 -12 23 -6 19 7 -4 20 1 31 11
10 9 13 13 6 8 -18 -12 -17 8 2 24 8 6 19 9 24 5 6 -3 8 0 5 8 -3 8 3 20 12
28 12 9 15 10 10 2 -4 -7 -2 -13 3 -13 15 0 14 13 -1 29 -10 11 -10 13 0 7 11
-7 17 5 13 27 -1 5 3 6 9 2 6 -3 7 -11 4 -17 -4 -7 -2 -8 5 -4 6 4 8 12 5 18
-5 8 -1 9 12 5 18 -7 18 -6 2 6 -10 8 -15 17 -11 20 3 4 12 2 18 -3 9 -8 12
-4 10 15 -3 22 -1 24 18 13 20 -10 21 -10 8 5 -11 14 -8 19 25 39 22 13 43 22
47 20 5 -1 6 2 2 8 -5 8 -11 7 -21 -1 -8 -6 -14 -8 -14 -3 0 15 16 35 26 33
21 -4 26 2 13 18 -9 10 -9 14 -2 10 7 -5 17 1 24 14 9 17 13 19 20 8 5 -8 9
-9 9 -4 0 6 -6 17 -12 24 -11 11 -10 12 1 6 11 -6 13 -4 8 9 -4 10 -2 16 6 15
26 -3 35 2 33 19 -1 12 6 17 22 16 12 -1 20 1 17 4 -3 3 4 16 16 28 13 14 17
24 10 29 -6 3 -11 11 -11 17 0 6 7 5 16 -3 15 -12 16 -11 10 9 -7 22 7 31 19
12 4 -6 11 -8 16 -4 6 3 5 12 -3 22 -11 13 -10 15 5 9 12 -5 17 -1 17 13 0 10
5 22 12 26 6 4 8 3 4 -4 -3 -6 -2 -14 4 -17 6 -4 10 -3 9 2 -4 21 2 43 12 43
5 0 7 -5 3 -12 -4 -7 -3 -8 5 -4 6 4 9 11 6 16 -3 5 3 14 12 20 15 9 15 10 -6
4 -16 -4 -21 -3 -17 5 4 6 16 11 26 11 13 0 17 5 14 15 -4 9 1 18 11 21 9 4
14 13 10 21 -4 11 -1 13 11 9 11 -4 15 -2 11 8 -3 7 0 19 6 26 9 10 9 11 -3 6
-8 -4 -7 -1 4 8 10 8 15 19 12 24 -3 5 1 15 9 22 8 7 15 19 15 27 0 7 7 16 15
19 8 4 15 10 15 16 0 5 -6 6 -12 3 -7 -4 -5 0 6 9 11 9 16 21 12 32 -6 15 -4
15 11 3 10 -7 15 -9 11 -5 -4 5 0 15 10 23 16 12 16 13 -3 8 -16 -5 -15 -3 3
6 13 7 21 18 18 25 -3 7 2 15 10 18 10 4 13 2 8 -7 -6 -8 -3 -8 8 1 9 7 15 22
13 33 -2 11 0 17 5 14 12 -8 80 54 80 73 0 8 6 12 14 9 10 -4 13 -1 10 7 -3 8
-1 17 5 21 6 3 11 1 11 -4 0 -6 4 -11 9 -11 5 0 8 11 6 25 -2 20 1 23 11 14
10 -8 12 -6 9 13 -4 23 -4 23 11 3 16 -20 16 -19 9 4 -5 16 -4 21 4 17 6 -4
19 -2 28 4 14 9 14 10 2 7 -9 -3 -16 1 -16 8 0 8 8 12 20 10 13 -3 17 0 13 10
-3 8 -1 17 4 20 6 4 10 1 10 -5 0 -6 5 -8 10 -5 6 4 8 11 5 16 -4 5 -1 17 5
26 11 16 11 16 6 1 -3 -10 0 -20 6 -24 7 -4 8 -3 4 5 -4 6 0 14 9 17 13 6 14
8 3 15 -10 7 -11 9 0 9 8 0 10 5 6 13 -5 7 0 6 11 -3 15 -12 17 -12 10 -1 -6
11 -4 13 8 8 20 -7 23 8 5 17 -7 4 -3 4 10 2 19 -4 21 -2 11 10 -10 12 -9 13
6 8 14 -6 16 -4 10 7 -8 12 -6 12 8 0 16 -12 17 -12 10 5 -6 16 -5 17 9 6 10
-8 18 -9 22 -3 4 6 24 8 45 6 31 -3 44 1 69 23 24 22 95 88 256 237 6 6 67 60
136 120 69 61 130 115 136 120 6 6 30 26 54 45 24 19 48 40 54 45 30 28 204
171 311 254 66 52 138 109 161 127 202 161 501 372 831 589 125 82 230 152
233 155 3 3 21 17 40 31 19 15 77 67 128 118 51 50 96 91 100 91 3 0 17 -11
31 -24 l26 -25 65 44 c72 49 131 100 147 129 6 10 37 45 69 78 l58 58 111 0
110 0 105 55 c202 106 487 243 665 320 55 24 135 59 178 79 43 20 95 43 115
50 90 34 230 89 257 101 17 8 48 21 70 29 22 7 121 44 220 81 194 72 413 148
485 170 25 7 88 26 140 43 52 17 129 40 170 52 41 12 86 26 100 31 35 12 522
144 570 154 48 10 73 16 150 34 47 11 96 22 110 25 40 8 72 15 120 26 25 5 56
12 70 14 14 2 36 7 50 10 14 3 36 8 50 10 14 2 59 11 100 20 41 8 91 18 110
21 19 3 96 17 170 30 74 13 158 27 185 31 28 3 57 8 66 9 9 2 40 6 69 10 29 4
60 8 69 10 9 1 41 6 71 10 30 3 68 9 83 11 46 7 456 53 537 59 41 4 91 8 110
10 19 2 75 6 123 10 49 4 97 8 107 10 135 26 1515 26 1748 0 20 -2 84 -6 142
-10 58 -3 114 -7 125 -9 11 -2 65 -7 120 -10 55 -4 107 -9 115 -11 8 -2 51 -7
94 -10 43 -4 86 -8 96 -10 9 -2 43 -6 75 -9 109 -12 364 -46 447 -61 46 -7
101 -16 123 -20 74 -11 220 -35 265 -45 25 -5 95 -18 155 -30 61 -11 121 -22
135 -25 91 -17 386 -85 550 -125 459 -114 721 -192 1260 -375 217 -74 727
-278 985 -395 22 -10 67 -30 100 -45 108 -49 377 -178 523 -252 161 -82 332
-173 537 -287 69 -39 539 -321 598 -360 238 -155 434 -288 549 -371 75 -55
146 -107 158 -115 155 -105 521 -390 605 -471 63 -60 297 -240 303 -234 3 2
-16 26 -41 52 -25 26 -54 57 -64 69 -49 57 -141 160 -168 189 -16 17 -60 65
-96 106 -76 84 -97 107 -292 313 -163 171 -297 305 -460 461 -145 138 -176
165 -193 165 -8 0 -11 6 -7 16 4 10 -1 17 -15 21 -11 2 -22 13 -25 24 -3 11
-14 19 -27 19 -11 0 -18 5 -15 10 3 6 1 10 -4 10 -6 0 -11 7 -11 15 0 9 -6 12
-17 8 -11 -4 -14 -3 -9 5 4 7 1 12 -9 12 -9 0 -14 4 -11 9 3 5 -1 11 -9 14
-10 4 -12 1 -8 -10 4 -9 -4 -6 -19 8 -13 13 -22 28 -19 34 2 5 6 4 9 -3 2 -7
8 -12 13 -12 5 0 4 9 -3 20 -9 14 -15 16 -21 7 -7 -9 -10 -9 -14 1 -2 6 -8 11
-11 9 -4 -2 -15 4 -24 15 -20 21 -16 23 15 7 21 -10 21 -10 3 5 -11 9 -26 16
-33 16 -7 0 -13 4 -13 9 0 5 -14 14 -31 21 -17 8 -28 18 -25 26 3 8 -2 11 -14
9 -12 -2 -21 3 -25 16 -4 11 -11 16 -18 12 -8 -4 -7 -1 1 9 11 14 10 16 -9 11
-14 -4 -20 -2 -16 4 4 6 -2 13 -13 16 -12 3 -20 14 -20 26 0 12 -5 21 -11 21
-5 0 -7 -4 -4 -10 3 -5 4 -10 0 -10 -3 0 -10 11 -15 25 -6 16 -14 23 -25 19
-8 -3 -15 -1 -15 5 0 6 -6 11 -14 11 -8 0 -18 5 -22 12 -5 7 -3 8 7 3 12 -7
12 -6 1 7 -8 9 -23 18 -35 20 -12 2 -21 9 -20 15 2 7 -6 15 -17 18 -11 4 -20
11 -20 16 0 6 -4 8 -9 5 -5 -3 -12 5 -15 18 -3 13 -15 26 -27 29 -12 3 -18 10
-14 16 4 7 0 8 -11 4 -12 -4 -15 -3 -10 5 7 11 -11 17 -39 13 -5 -1 -2 5 8 13
10 8 14 17 8 20 -5 3 -12 0 -15 -6 -5 -11 -7 -11 -12 0 -3 6 -10 10 -15 6 -5
-3 -9 -1 -9 5 0 5 5 11 12 13 7 3 5 7 -6 11 -10 4 -15 3 -11 -3 3 -6 1 -10 -4
-10 -6 0 -11 7 -11 15 0 13 -17 20 -45 16 -5 -1 -1 6 10 14 19 16 19 16 -8 11
-23 -4 -26 -2 -18 8 11 14 5 26 -13 26 -6 0 -4 -5 4 -10 12 -7 10 -9 -7 -7
-18 1 -20 4 -11 22 10 19 10 19 -7 5 -17 -14 -18 -13 -12 3 4 11 3 16 -3 12
-6 -3 -10 -1 -10 4 0 6 -10 11 -21 11 -16 0 -20 5 -17 18 3 10 0 19 -6 20 -43
4 -69 20 -62 38 3 9 0 11 -11 7 -11 -4 -14 -2 -9 5 9 16 -7 15 -22 0 -14 -14
-16 -4 -2 21 8 16 6 17 -17 13 -16 -3 -24 -1 -20 5 9 14 -14 31 -36 28 -15 -3
-16 -1 -5 13 8 9 8 13 1 9 -16 -10 -45 3 -39 18 3 8 -2 11 -15 8 -15 -4 -19 0
-20 18 0 22 -1 23 -9 4 -8 -18 -9 -18 -9 -2 -1 12 -5 16 -13 11 -8 -5 -7 -1 1
10 13 16 13 17 0 15 -20 -3 -70 22 -63 32 3 5 0 9 -6 9 -6 0 -18 7 -27 15 -8
8 -20 12 -26 8 -7 -4 -6 1 2 10 12 15 12 17 -4 11 -14 -6 -16 -4 -10 7 7 11 5
11 -10 -1 -11 -9 -16 -10 -11 -2 4 7 2 12 -4 12 -6 0 -8 4 -5 10 4 6 -1 7 -11
3 -13 -5 -16 -3 -11 10 3 9 3 16 -1 16 -22 -4 -32 2 -26 14 5 8 2 8 -9 -2 -15
-12 -17 -11 -18 5 0 11 -3 14 -5 8 -3 -7 -18 -9 -44 -4 -22 4 -40 4 -40 0 0
-3 -13 -5 -30 -2 -16 2 -30 8 -30 13 0 5 -10 9 -22 9 -19 0 -20 2 -8 10 12 8
10 10 -9 10 -20 0 -22 2 -11 15 11 13 10 14 -5 9 -13 -5 -16 -4 -11 4 6 11
-20 18 -47 13 -5 -1 -6 3 -2 8 3 6 13 7 22 4 15 -6 16 -5 3 9 -8 9 -17 16 -20
16 -19 -1 -29 4 -34 18 -6 15 -4 15 11 3 17 -12 17 -12 0 7 -15 16 -19 17 -28
4 -7 -11 -8 -5 -4 20 5 34 5 34 -9 11 l-14 -24 -6 21 c-4 12 -12 19 -18 16 -5
-4 -4 4 3 17 11 22 11 23 -4 11 -14 -12 -16 -11 -12 8 4 18 2 20 -11 9 -12
-10 -13 -9 -7 7 6 17 5 17 -10 5 -15 -12 -17 -12 -10 4 5 15 3 17 -11 12 -10
-4 -15 -3 -11 3 3 6 1 10 -4 10 -6 0 -11 5 -11 11 0 5 6 7 13 3 8 -5 8 -2 -2
9 -15 18 -26 23 -16 7 3 -5 1 -10 -4 -10 -6 0 -11 5 -11 11 0 5 -4 7 -10 4 -5
-3 -10 2 -10 12 0 13 -2 15 -9 5 -11 -18 -158 -13 -158 5 0 9 4 10 12 3 9 -7
14 -6 18 3 3 9 -5 13 -26 12 -17 0 -32 -6 -35 -13 -3 -10 -9 -9 -23 4 -14 13
-16 20 -8 31 9 10 8 13 -1 13 -10 0 -10 3 0 15 7 8 8 15 4 15 -5 0 -15 9 -22
21 -8 12 -9 19 -4 15 5 -3 4 10 -2 28 -5 18 -25 44 -45 58 -33 24 -315 197
-387 238 -17 10 -62 37 -99 59 -37 23 -69 41 -72 41 -2 0 -29 16 -59 35 -30
19 -57 35 -60 35 -3 0 -36 17 -72 39 -195 112 -1135 581 -1167 581 -2 0 -35
14 -72 31 -38 17 -90 40 -117 51 -27 10 -68 27 -90 38 -52 23 -464 184 -616
240 -296 109 -747 256 -1045 339 -99 28 -193 55 -210 61 -16 5 -77 21 -135 35
-58 14 -112 28 -120 30 -8 2 -46 11 -85 20 -38 9 -108 25 -155 36 -150 36
-702 149 -805 165 -11 1 -101 16 -200 33 -99 17 -200 33 -225 36 -25 3 -52 7
-60 10 -8 2 -44 7 -80 10 -36 4 -67 8 -70 10 -3 2 -33 6 -67 10 -34 3 -70 7
-80 9 -10 2 -45 7 -78 10 -33 4 -71 9 -85 11 -29 4 -125 15 -190 21 -25 2 -66
6 -92 9 -90 10 -273 27 -323 30 -22 1 -92 5 -155 9 -63 4 -137 9 -165 11 -27
2 -108 7 -180 10 -71 4 -148 9 -170 11 -60 6 -1199 16 -1205 11z m9950 -3147
c0 -5 -5 -10 -11 -10 -5 0 -7 5 -4 10 3 6 8 10 11 10 2 0 4 -4 4 -10z m-16305
-3110 c-10 -11 -22 -20 -26 -20 -5 0 2 10 14 23 27 28 38 25 12 -3z m-440
-620 c-10 -11 -23 -20 -28 -20 -6 0 0 9 13 20 13 11 25 20 28 20 3 0 -3 -9
-13 -20z m4903 -20345 c8 -8 -40 -4 -68 6 -19 6 -14 7 19 4 24 -3 46 -7 49
-10z"/>
<path d="M26555 29231 c-3 -5 -2 -12 3 -15 5 -3 9 1 9 9 0 17 -3 19 -12 6z"/>
<path d="M26816 29082 c-2 -4 -1 -14 4 -22 7 -11 9 -9 7 8 -1 24 -3 26 -11 14z"/>
<path d="M26966 28998 c3 -5 10 -6 15 -3 13 9 11 12 -6 12 -8 0 -12 -4 -9 -9z"/>
<path d="M27033 28965 c0 -8 4 -12 9 -9 5 3 6 10 3 15 -9 13 -12 11 -12 -6z"/>
<path d="M27640 28520 c-9 -6 -10 -10 -3 -10 6 0 15 5 18 10 8 12 4 12 -15 0z"/>
<path d="M10591 24616 c-21 -12 -22 -14 -5 -20 10 -4 15 -4 11 0 -4 4 1 13 11
20 22 17 14 17 -17 0z"/>
<path d="M4465 24190 c-3 -6 1 -7 9 -4 18 7 21 14 7 14 -6 0 -13 -4 -16 -10z"/>
<path d="M10146 24052 c-3 -5 1 -9 9 -9 8 0 12 4 9 9 -3 4 -7 8 -9 8 -2 0 -6
-4 -9 -8z"/>
<path d="M4193 23935 c0 -8 4 -12 9 -9 5 3 6 10 3 15 -9 13 -12 11 -12 -6z"/>
<path d="M32104 19128 c22 -11 53 -33 70 -49 17 -15 32 -26 34 -24 11 10 -108
95 -131 95 -6 -1 6 -10 27 -22z"/>
<path d="M33508 18793 c7 -3 16 -2 19 1 4 3 -2 6 -13 5 -11 0 -14 -3 -6 -6z"/>
<path d="M34589 18475 c36 -19 78 -47 94 -62 17 -16 26 -21 21 -12 -15 27 -69
67 -119 89 -70 30 -68 24 4 -15z"/>
<path d="M34720 18387 c0 -2 15 -16 33 -33 l32 -29 -29 33 c-28 30 -36 37 -36
29z"/>
<path d="M34820 18285 c8 -11 17 -22 21 -25 3 -3 17 -21 32 -41 l27 -37 -22
-6 c-13 -3 -63 -9 -113 -12 -49 -4 -92 -8 -94 -10 -2 -2 62 -4 142 -4 170 0
167 -5 58 95 -36 33 -59 51 -51 40z"/>
<path d="M25015 16045 c0 -192 1 -270 2 -172 2 98 2 256 0 350 -1 95 -3 15 -2
-178z"/>
<path d="M25023 15350 c0 -47 2 -66 4 -42 2 23 2 61 0 85 -2 23 -4 4 -4 -43z"/>
<path d="M25032 14840 c0 -14 2 -19 5 -12 2 6 2 18 0 25 -3 6 -5 1 -5 -13z"/>
<path d="M24979 14133 c-13 -16 -12 -17 4 -4 16 13 21 21 13 21 -2 0 -10 -8
-17 -17z"/>
<path d="M24949 14093 c-13 -16 -12 -17 4 -4 16 13 21 21 13 21 -2 0 -10 -8
-17 -17z"/>
<path d="M25545 13664 c-36 -31 -37 -33 -9 -17 18 9 37 25 43 35 15 24 12 23
-34 -18z"/>
<path d="M6310 7936 c0 -2 8 -10 18 -17 15 -13 16 -12 3 4 -13 16 -21 21 -21
13z"/>
<path d="M6510 7761 c0 -5 7 -12 16 -15 14 -5 15 -4 4 9 -14 17 -20 19 -20 6z"/>
</g>
</svg>
